<svg width="327" height="364" viewBox="0 0 327 364" fill="none" xmlns="http://www.w3.org/2000/svg">
<path d="M28.5 326.237C22.3 326.237 17.1 325.337 12.9 323.537C8.76667 321.67 5.6 319.27 3.4 316.337C1.26667 313.337 0.133333 310.204 0 306.937C0 306.337 0.2 305.837 0.6 305.437C1 305.037 1.5 304.837 2.1 304.837H11C11.8667 304.837 12.5 305.037 12.9 305.437C13.3667 305.77 13.7667 306.204 14.1 306.737C14.5 308.004 15.2667 309.27 16.4 310.537C17.5333 311.737 19.0667 312.737 21 313.537C23 314.337 25.5 314.737 28.5 314.737C33.3 314.737 36.8667 313.937 39.2 312.337C41.6 310.737 42.8 308.57 42.8 305.837C42.8 303.904 42.1667 302.37 40.9 301.237C39.6333 300.037 37.6667 298.97 35 298.037C32.4 297.037 28.9333 296.004 24.6 294.937C19.6 293.737 15.4 292.304 12 290.637C8.66667 288.904 6.13333 286.737 4.4 284.137C2.73333 281.537 1.9 278.237 1.9 274.237C1.9 270.37 2.93333 266.937 5 263.937C7.13333 260.937 10.1333 258.57 14 256.837C17.9333 255.104 22.6 254.237 28 254.237C32.3333 254.237 36.1667 254.837 39.5 256.037C42.8333 257.17 45.6 258.704 47.8 260.637C50 262.504 51.6667 264.537 52.8 266.737C54 268.87 54.6333 270.97 54.7 273.037C54.7 273.57 54.5 274.07 54.1 274.537C53.7667 274.937 53.2667 275.137 52.6 275.137H43.3C42.7667 275.137 42.2333 275.004 41.7 274.737C41.1667 274.47 40.7333 273.97 40.4 273.237C40 271.17 38.7 269.404 36.5 267.937C34.3 266.47 31.4667 265.737 28 265.737C24.4 265.737 21.5 266.404 19.3 267.737C17.1 269.07 16 271.137 16 273.937C16 275.804 16.5333 277.37 17.6 278.637C18.7333 279.837 20.5 280.904 22.9 281.837C25.3667 282.77 28.6 283.77 32.6 284.837C38.2667 286.104 42.9 287.57 46.5 289.237C50.1 290.904 52.7333 293.037 54.4 295.637C56.0667 298.17 56.9 301.404 56.9 305.337C56.9 309.737 55.7 313.504 53.3 316.637C50.9667 319.704 47.6667 322.07 43.4 323.737C39.1333 325.404 34.1667 326.237 28.5 326.237Z" fill="black"/>
<path d="M70.7602 325.237C70.0935 325.237 69.5268 325.004 69.0602 324.537C68.5935 324.07 68.3602 323.504 68.3602 322.837V257.737C68.3602 257.004 68.5935 256.404 69.0602 255.937C69.5268 255.47 70.0935 255.237 70.7602 255.237H96.6602C104.727 255.237 111.093 257.104 115.76 260.837C120.427 264.57 122.76 270.004 122.76 277.137C122.76 282.07 121.527 286.17 119.06 289.437C116.66 292.704 113.427 295.07 109.36 296.537L123.96 322.037C124.16 322.437 124.26 322.804 124.26 323.137C124.26 323.737 124.027 324.237 123.56 324.637C123.16 325.037 122.693 325.237 122.16 325.237H113.06C111.927 325.237 111.06 324.937 110.46 324.337C109.86 323.737 109.393 323.137 109.06 322.537L96.1602 298.837H82.2602V322.837C82.2602 323.504 82.0268 324.07 81.5602 324.537C81.1602 325.004 80.5935 325.237 79.8602 325.237H70.7602ZM82.2602 287.537H96.3602C100.427 287.537 103.46 286.637 105.46 284.837C107.46 282.97 108.46 280.37 108.46 277.037C108.46 273.704 107.46 271.104 105.46 269.237C103.527 267.304 100.493 266.337 96.3602 266.337H82.2602V287.537Z" fill="black"/>
<path d="M138.045 325.237C137.379 325.237 136.812 325.004 136.345 324.537C135.879 324.07 135.645 323.504 135.645 322.837V257.737C135.645 257.004 135.879 256.404 136.345 255.937C136.812 255.47 137.379 255.237 138.045 255.237H182.045C182.779 255.237 183.379 255.47 183.845 255.937C184.312 256.404 184.545 257.004 184.545 257.737V264.337C184.545 265.004 184.312 265.57 183.845 266.037C183.379 266.504 182.779 266.737 182.045 266.737H149.145V284.437H179.845C180.579 284.437 181.179 284.67 181.645 285.137C182.112 285.537 182.345 286.104 182.345 286.837V293.037C182.345 293.77 182.112 294.37 181.645 294.837C181.179 295.237 180.579 295.437 179.845 295.437H149.145V313.737H182.845C183.579 313.737 184.179 313.97 184.645 314.437C185.112 314.904 185.345 315.504 185.345 316.237V322.837C185.345 323.504 185.112 324.07 184.645 324.537C184.179 325.004 183.579 325.237 182.845 325.237H138.045Z" fill="black"/>
<path d="M200.252 325.237C199.586 325.237 199.019 325.004 198.552 324.537C198.086 324.07 197.852 323.504 197.852 322.837V257.737C197.852 257.004 198.086 256.404 198.552 255.937C199.019 255.47 199.586 255.237 200.252 255.237H224.652C231.386 255.237 236.919 256.27 241.252 258.337C245.652 260.404 248.952 263.47 251.152 267.537C253.419 271.604 254.586 276.57 254.652 282.437C254.786 285.37 254.852 287.97 254.852 290.237C254.852 292.504 254.786 295.07 254.652 297.937C254.519 304.137 253.386 309.27 251.252 313.337C249.119 317.337 245.886 320.337 241.552 322.337C237.286 324.27 231.819 325.237 225.152 325.237H200.252ZM211.752 313.737H224.652C228.386 313.737 231.419 313.204 233.752 312.137C236.086 311.07 237.786 309.37 238.852 307.037C239.986 304.637 240.586 301.504 240.652 297.637C240.719 295.637 240.752 293.904 240.752 292.437C240.819 290.904 240.819 289.404 240.752 287.937C240.752 286.404 240.719 284.67 240.652 282.737C240.519 277.27 239.152 273.237 236.552 270.637C233.952 268.037 229.819 266.737 224.152 266.737H211.752V313.737Z" fill="black"/>
<path d="M262.498 325.237C261.964 325.237 261.464 325.037 260.998 324.637C260.598 324.237 260.398 323.737 260.398 323.137C260.398 322.87 260.464 322.57 260.598 322.237L284.698 257.737C284.898 257.07 285.264 256.504 285.798 256.037C286.398 255.504 287.198 255.237 288.198 255.237H299.098C300.098 255.237 300.864 255.504 301.398 256.037C301.931 256.504 302.331 257.07 302.598 257.737L326.698 322.237C326.764 322.57 326.798 322.87 326.798 323.137C326.798 323.737 326.598 324.237 326.198 324.637C325.798 325.037 325.331 325.237 324.798 325.237H316.098C315.164 325.237 314.464 325.037 313.998 324.637C313.598 324.17 313.331 323.737 313.198 323.337L308.498 311.137H278.798L274.098 323.337C273.964 323.737 273.664 324.17 273.198 324.637C272.798 325.037 272.131 325.237 271.198 325.237H262.498ZM282.298 299.637H304.998L293.598 268.737L282.298 299.637Z" fill="black"/>
<path d="M48.2434 363.477C47.0754 363.477 46.0354 363.301 45.1234 362.949C44.2274 362.597 43.5074 362.101 42.9634 361.461C42.4194 360.821 42.0994 360.077 42.0034 359.229C41.9874 359.085 42.0274 358.973 42.1234 358.893C42.2354 358.797 42.3634 358.749 42.5074 358.749H43.7794C43.9394 358.749 44.0594 358.781 44.1394 358.845C44.2194 358.909 44.2914 359.037 44.3554 359.229C44.5314 359.837 44.9314 360.357 45.5554 360.789C46.1794 361.221 47.0674 361.437 48.2194 361.437C49.5154 361.437 50.5234 360.989 51.2434 360.093C51.9794 359.181 52.3474 357.933 52.3474 356.349V355.797H46.5154C46.3554 355.797 46.2194 355.741 46.1074 355.629C46.0114 355.517 45.9634 355.381 45.9634 355.221V354.405C45.9634 354.229 46.0114 354.093 46.1074 353.997C46.2194 353.885 46.3554 353.829 46.5154 353.829H52.3474V353.349C52.3474 351.589 51.9874 350.301 51.2674 349.485C50.5474 348.653 49.5314 348.237 48.2194 348.237C47.0674 348.237 46.1794 348.461 45.5554 348.909C44.9314 349.341 44.5394 349.861 44.3794 350.469C44.3154 350.645 44.2434 350.773 44.1634 350.853C44.0994 350.917 43.9794 350.949 43.8034 350.949H42.5314C42.3874 350.949 42.2594 350.901 42.1474 350.805C42.0514 350.709 42.0114 350.589 42.0274 350.445C42.1234 349.581 42.4434 348.837 42.9874 348.213C43.5314 347.573 44.2514 347.077 45.1474 346.725C46.0434 346.373 47.0754 346.197 48.2434 346.197C49.4754 346.197 50.5714 346.437 51.5314 346.917C52.4914 347.397 53.2514 348.165 53.8114 349.221C54.3874 350.277 54.6994 351.661 54.7474 353.373C54.7634 353.757 54.7714 354.101 54.7714 354.405C54.7714 354.709 54.7714 355.013 54.7714 355.317C54.7714 355.605 54.7634 355.933 54.7474 356.301C54.6994 358.029 54.3874 359.421 53.8114 360.477C53.2514 361.517 52.4914 362.277 51.5314 362.757C50.5714 363.237 49.4754 363.477 48.2434 363.477Z" fill="black"/>
<path d="M66.0184 363.237C65.8424 363.237 65.7064 363.189 65.6104 363.093C65.5144 362.981 65.4664 362.845 65.4664 362.685V347.013C65.4664 346.837 65.5144 346.701 65.6104 346.605C65.7064 346.493 65.8424 346.437 66.0184 346.437H67.2424C67.4184 346.437 67.5544 346.493 67.6504 346.605C67.7624 346.701 67.8184 346.837 67.8184 347.013V353.637H70.5304L74.8024 346.821C74.8824 346.693 74.9864 346.597 75.1144 346.533C75.2424 346.469 75.4104 346.437 75.6184 346.437H76.9144C77.0904 346.437 77.2184 346.485 77.2984 346.581C77.3784 346.677 77.4184 346.789 77.4184 346.917C77.4184 347.013 77.3784 347.117 77.2984 347.229L72.6904 354.573L77.7544 362.397C77.8024 362.461 77.8264 362.549 77.8264 362.661C77.8264 362.821 77.7704 362.957 77.6584 363.069C77.5624 363.181 77.4344 363.237 77.2744 363.237H75.9064C75.7304 363.237 75.5944 363.205 75.4984 363.141C75.4184 363.061 75.3464 362.973 75.2824 362.877L70.6264 355.797H67.8184V362.685C67.8184 362.845 67.7624 362.981 67.6504 363.093C67.5544 363.189 67.4184 363.237 67.2424 363.237H66.0184Z" fill="black"/>
<path d="M94.066 363.477C92.69 363.477 91.514 363.245 90.538 362.781C89.562 362.301 88.81 361.573 88.282 360.597C87.754 359.605 87.458 358.365 87.394 356.877C87.378 356.173 87.37 355.501 87.37 354.861C87.37 354.205 87.378 353.525 87.394 352.821C87.458 351.349 87.762 350.125 88.306 349.149C88.866 348.157 89.634 347.421 90.61 346.941C91.602 346.445 92.754 346.197 94.066 346.197C95.362 346.197 96.498 346.445 97.474 346.941C98.466 347.421 99.242 348.157 99.802 349.149C100.362 350.125 100.666 351.349 100.714 352.821C100.746 353.525 100.762 354.205 100.762 354.861C100.762 355.501 100.746 356.173 100.714 356.877C100.666 358.365 100.37 359.605 99.826 360.597C99.298 361.573 98.546 362.301 97.57 362.781C96.594 363.245 95.426 363.477 94.066 363.477ZM94.066 361.437C95.282 361.437 96.274 361.069 97.042 360.333C97.826 359.597 98.25 358.405 98.314 356.757C98.346 356.037 98.362 355.397 98.362 354.837C98.362 354.261 98.346 353.621 98.314 352.917C98.282 351.813 98.074 350.917 97.69 350.229C97.322 349.541 96.826 349.037 96.202 348.717C95.578 348.397 94.866 348.237 94.066 348.237C93.266 348.237 92.554 348.397 91.93 348.717C91.306 349.037 90.802 349.541 90.418 350.229C90.05 350.917 89.842 351.813 89.794 352.917C89.778 353.621 89.77 354.261 89.77 354.837C89.77 355.397 89.778 356.037 89.794 356.757C89.858 358.405 90.282 359.597 91.066 360.333C91.85 361.069 92.85 361.437 94.066 361.437Z" fill="black"/>
<path d="M111.58 357.045C111.42 357.045 111.284 356.997 111.172 356.901C111.076 356.789 111.028 356.653 111.028 356.493V355.581C111.028 355.421 111.076 355.293 111.172 355.197C111.284 355.085 111.42 355.029 111.58 355.029H118.78C118.956 355.029 119.092 355.085 119.188 355.197C119.284 355.293 119.332 355.421 119.332 355.581V356.493C119.332 356.653 119.284 356.789 119.188 356.901C119.092 356.997 118.956 357.045 118.78 357.045H111.58Z" fill="black"/>
<path d="M136.333 363.477C134.861 363.477 133.637 363.205 132.661 362.661C131.701 362.117 130.973 361.357 130.477 360.381C129.981 359.405 129.709 358.269 129.661 356.973C129.645 356.317 129.637 355.613 129.637 354.861C129.637 354.109 129.645 353.389 129.661 352.701C129.709 351.405 129.981 350.269 130.477 349.293C130.973 348.317 131.701 347.557 132.661 347.013C133.637 346.469 134.861 346.197 136.333 346.197C137.437 346.197 138.405 346.349 139.237 346.653C140.069 346.957 140.757 347.365 141.301 347.877C141.861 348.389 142.285 348.965 142.573 349.605C142.861 350.229 143.021 350.877 143.053 351.549C143.069 351.693 143.021 351.813 142.909 351.909C142.813 352.005 142.693 352.053 142.549 352.053H141.229C141.085 352.053 140.957 352.013 140.845 351.933C140.749 351.853 140.677 351.709 140.629 351.501C140.357 350.253 139.845 349.397 139.093 348.933C138.357 348.469 137.437 348.237 136.333 348.237C135.037 348.237 134.013 348.605 133.261 349.341C132.509 350.061 132.109 351.221 132.061 352.821C132.013 354.133 132.013 355.477 132.061 356.853C132.109 358.453 132.509 359.621 133.261 360.357C134.013 361.077 135.037 361.437 136.333 361.437C137.437 361.437 138.357 361.205 139.093 360.741C139.845 360.277 140.357 359.421 140.629 358.173C140.677 357.965 140.749 357.821 140.845 357.741C140.957 357.661 141.085 357.621 141.229 357.621H142.549C142.693 357.621 142.813 357.669 142.909 357.765C143.021 357.845 143.069 357.957 143.053 358.101C143.021 358.773 142.861 359.429 142.573 360.069C142.285 360.709 141.861 361.285 141.301 361.797C140.757 362.309 140.069 362.717 139.237 363.021C138.405 363.325 137.437 363.477 136.333 363.477Z" fill="black"/>
<path d="M154.022 363.237C153.846 363.237 153.71 363.181 153.614 363.069C153.518 362.957 153.47 362.821 153.47 362.661V347.013C153.47 346.837 153.518 346.701 153.614 346.605C153.726 346.493 153.862 346.437 154.022 346.437H155.27C155.43 346.437 155.558 346.493 155.654 346.605C155.766 346.701 155.822 346.837 155.822 347.013V359.421L164.774 346.773C164.822 346.709 164.886 346.637 164.966 346.557C165.062 346.477 165.198 346.437 165.374 346.437H166.55C166.71 346.437 166.838 346.493 166.934 346.605C167.046 346.701 167.102 346.837 167.102 347.013V362.685C167.102 362.845 167.046 362.981 166.934 363.093C166.838 363.189 166.71 363.237 166.55 363.237H165.326C165.166 363.237 165.03 363.189 164.918 363.093C164.806 362.981 164.75 362.845 164.75 362.685V350.373L155.822 362.901C155.79 362.949 155.726 363.021 155.63 363.117C155.534 363.197 155.398 363.237 155.222 363.237H154.022Z" fill="black"/>
<path d="M184.53 363.477C183.058 363.477 181.834 363.205 180.858 362.661C179.898 362.117 179.17 361.357 178.674 360.381C178.178 359.405 177.906 358.269 177.858 356.973C177.842 356.317 177.834 355.613 177.834 354.861C177.834 354.109 177.842 353.389 177.858 352.701C177.906 351.405 178.178 350.269 178.674 349.293C179.17 348.317 179.898 347.557 180.858 347.013C181.834 346.469 183.058 346.197 184.53 346.197C185.634 346.197 186.602 346.349 187.434 346.653C188.266 346.957 188.954 347.365 189.498 347.877C190.058 348.389 190.482 348.965 190.77 349.605C191.058 350.229 191.218 350.877 191.25 351.549C191.266 351.693 191.218 351.813 191.106 351.909C191.01 352.005 190.89 352.053 190.746 352.053H189.426C189.282 352.053 189.154 352.013 189.042 351.933C188.946 351.853 188.874 351.709 188.826 351.501C188.554 350.253 188.042 349.397 187.29 348.933C186.554 348.469 185.634 348.237 184.53 348.237C183.234 348.237 182.21 348.605 181.458 349.341C180.706 350.061 180.306 351.221 180.258 352.821C180.21 354.133 180.21 355.477 180.258 356.853C180.306 358.453 180.706 359.621 181.458 360.357C182.21 361.077 183.234 361.437 184.53 361.437C185.634 361.437 186.554 361.205 187.29 360.741C188.042 360.277 188.554 359.421 188.826 358.173C188.874 357.965 188.946 357.821 189.042 357.741C189.154 357.661 189.282 357.621 189.426 357.621H190.746C190.89 357.621 191.01 357.669 191.106 357.765C191.218 357.845 191.266 357.957 191.25 358.101C191.218 358.773 191.058 359.429 190.77 360.069C190.482 360.709 190.058 361.285 189.498 361.797C188.954 362.309 188.266 362.717 187.434 363.021C186.602 363.325 185.634 363.477 184.53 363.477Z" fill="black"/>
<path d="M205.89 363.237C205.73 363.237 205.594 363.189 205.482 363.093C205.386 362.981 205.338 362.845 205.338 362.685V348.573H200.73C200.57 348.573 200.434 348.525 200.322 348.429C200.226 348.317 200.178 348.181 200.178 348.021V347.013C200.178 346.837 200.226 346.701 200.322 346.605C200.434 346.493 200.57 346.437 200.73 346.437H212.298C212.474 346.437 212.61 346.493 212.706 346.605C212.818 346.701 212.874 346.837 212.874 347.013V348.021C212.874 348.181 212.818 348.317 212.706 348.429C212.61 348.525 212.474 348.573 212.298 348.573H207.714V362.685C207.714 362.845 207.658 362.981 207.546 363.093C207.45 363.189 207.314 363.237 207.138 363.237H205.89Z" fill="black"/>
<path d="M223.317 363.237C223.141 363.237 223.005 363.189 222.909 363.093C222.813 362.981 222.765 362.845 222.765 362.685V347.013C222.765 346.837 222.813 346.701 222.909 346.605C223.005 346.493 223.141 346.437 223.317 346.437H233.229C233.405 346.437 233.541 346.493 233.637 346.605C233.733 346.701 233.781 346.837 233.781 347.013V347.925C233.781 348.101 233.733 348.237 233.637 348.333C233.541 348.429 233.405 348.477 233.229 348.477H225.069V353.733H232.701C232.877 353.733 233.013 353.789 233.109 353.901C233.205 353.997 233.253 354.133 233.253 354.309V355.197C233.253 355.357 233.205 355.493 233.109 355.605C233.013 355.701 232.877 355.749 232.701 355.749H225.069V361.197H233.421C233.597 361.197 233.733 361.245 233.829 361.341C233.925 361.437 233.973 361.573 233.973 361.749V362.685C233.973 362.845 233.925 362.981 233.829 363.093C233.733 363.189 233.597 363.237 233.421 363.237H223.317Z" fill="black"/>
<path d="M245.072 363.237C244.912 363.237 244.776 363.189 244.664 363.093C244.568 362.981 244.52 362.845 244.52 362.685V347.013C244.52 346.837 244.568 346.701 244.664 346.605C244.776 346.493 244.912 346.437 245.072 346.437H246.272C246.464 346.437 246.608 346.485 246.704 346.581C246.8 346.677 246.864 346.757 246.896 346.821L251.96 356.517L257.072 346.821C257.104 346.757 257.16 346.677 257.24 346.581C257.336 346.485 257.48 346.437 257.672 346.437H258.848C259.024 346.437 259.16 346.493 259.256 346.605C259.368 346.701 259.424 346.837 259.424 347.013V362.685C259.424 362.845 259.368 362.981 259.256 363.093C259.16 363.189 259.024 363.237 258.848 363.237H257.672C257.512 363.237 257.376 363.189 257.264 363.093C257.168 362.981 257.12 362.845 257.12 362.685V350.877L253.112 358.701C253.048 358.861 252.952 358.989 252.824 359.085C252.696 359.165 252.536 359.205 252.344 359.205H251.6C251.392 359.205 251.232 359.165 251.12 359.085C251.008 358.989 250.912 358.861 250.832 358.701L246.8 350.877V362.685C246.8 362.845 246.744 362.981 246.632 363.093C246.536 363.189 246.408 363.237 246.248 363.237H245.072Z" fill="black"/>
<path d="M269.646 363.237C269.518 363.237 269.406 363.189 269.31 363.093C269.214 362.997 269.166 362.885 269.166 362.757C269.166 362.677 269.174 362.589 269.19 362.493L275.142 346.965C275.206 346.805 275.294 346.677 275.406 346.581C275.518 346.485 275.686 346.437 275.91 346.437H277.542C277.766 346.437 277.934 346.485 278.046 346.581C278.158 346.677 278.246 346.805 278.31 346.965L284.238 362.493C284.27 362.589 284.286 362.677 284.286 362.757C284.286 362.885 284.238 362.997 284.142 363.093C284.046 363.189 283.934 363.237 283.806 363.237H282.582C282.39 363.237 282.246 363.189 282.15 363.093C282.07 362.997 282.014 362.909 281.982 362.829L280.662 359.421H272.79L271.47 362.829C271.454 362.909 271.398 362.997 271.302 363.093C271.206 363.189 271.062 363.237 270.87 363.237H269.646ZM273.486 357.357H279.966L276.726 348.837L273.486 357.357Z" fill="black"/>
<path d="M101.174 8.57708L123.474 47.1739L138.055 39.4545L114.897 0.857708L101.174 8.57708Z" fill="#1E1E1E"/>
<path d="M209.245 0L186.945 39.4545C191.233 42.3136 199.982 48.0316 200.668 48.0316C201.354 48.0316 215.821 21.7286 222.968 8.57708L209.245 0Z" fill="#1E1E1E"/>
<path d="M271 90.0593H224.684V106.356H271V90.0593Z" fill="#1E1E1E"/>
<path d="M224.684 187.838L201.526 148.383L186.945 156.96L209.245 196.415L224.684 187.838Z" fill="#1E1E1E"/>
<path d="M114.897 196.415L138.055 156.96L124.332 148.383L101.174 187.838L114.897 196.415Z" fill="#1E1E1E"/>
<path d="M54 107.213H99.4585V90.0593H54V107.213Z" fill="#1E1E1E"/>
<circle cx="162.071" cy="97.7787" r="63.4704" fill="#1E1E1E"/>
<path d="M138.055 40.3122L125.19 48.0316L147.49 90.0593H100.316V107.213H147.49L125.19 146.668L138.055 155.245L162.071 115.79L186.087 155.245L200.668 146.668L176.652 107.213H223.826V90.0593H176.652L200.668 48.0316L186.945 40.3122L162.071 81.4822L138.055 40.3122Z" fill="white"/>
</svg>
