<svg width="148" height="177" viewBox="0 0 148 177" fill="none" xmlns="http://www.w3.org/2000/svg">
<path d="M48.2174 3.67589L57.7747 20.2174L64.0237 16.9091L54.0988 0.367589L48.2174 3.67589Z" fill="#1E1E1E"/>
<path d="M94.5336 0L84.9763 16.9091C86.8142 18.1344 90.5636 20.585 90.8577 20.585C91.1518 20.585 97.3518 9.31225 100.415 3.67589L94.5336 0Z" fill="#1E1E1E"/>
<path d="M121 38.5968H101.15V45.581H121V38.5968Z" fill="#1E1E1E"/>
<path d="M101.15 80.502L91.2253 63.5929L84.9763 67.2688L94.5336 84.1779L101.15 80.502Z" fill="#1E1E1E"/>
<path d="M54.0988 84.1779L64.0237 67.2688L58.1423 63.5929L48.2174 80.502L54.0988 84.1779Z" fill="#1E1E1E"/>
<path d="M28 45.9486H47.4822V38.5968H28V45.9486Z" fill="#1E1E1E"/>
<circle cx="74.3163" cy="41.9052" r="27.2016" fill="#1E1E1E"/>
<path d="M64.0238 17.2766L58.5099 20.5849L68.0672 38.5968H47.8499V45.9486H68.0672L58.5099 62.8576L64.0238 66.5335L74.3163 49.6244L84.6087 66.5335L90.8578 62.8576L80.5653 45.9486H100.783V38.5968H80.5653L90.8578 20.5849L84.9763 17.2766L74.3163 34.9209L64.0238 17.2766Z" fill="white"/>
<path d="M54.82 99.4179L48.916 113.818L42.976 99.4179H37.468L48.088 123.61H49.708L60.292 99.4179H54.82ZM63.5368 123.178H68.3968V99.4179H63.5368V123.178ZM75.1336 123.61C79.6696 123.61 82.3696 121.45 82.3696 116.842V99.4179H77.5096V116.338C77.5096 118.462 76.3936 119.182 74.0896 119.182C73.4776 119.182 72.6856 119.11 71.7136 119.038V123.178C72.7216 123.43 73.8736 123.61 75.1336 123.61ZM97.6938 123.61C103.454 123.61 107.774 119.722 107.774 113.35V99.4179H102.914V113.71C102.914 117.274 100.682 119.11 97.6938 119.11C94.7418 119.11 92.4738 117.274 92.4738 113.71V99.4179H87.6138V113.35C87.6138 119.722 91.8978 123.61 97.6938 123.61Z" fill="#1E1E1E"/>
<path d="M3.33652 145.695H4.49152V153H3.33652V145.695ZM3.92152 143.745C3.68152 143.745 3.47652 143.665 3.30652 143.505C3.13652 143.345 3.05152 143.145 3.05152 142.905C3.05152 142.675 3.13652 142.48 3.30652 142.32C3.47652 142.15 3.68152 142.065 3.92152 142.065C4.15152 142.065 4.35152 142.15 4.52152 142.32C4.69152 142.48 4.77652 142.675 4.77652 142.905C4.77652 143.145 4.69152 143.345 4.52152 143.505C4.36152 143.665 4.16152 143.745 3.92152 143.745ZM10.3579 145.53C11.2079 145.53 11.8729 145.795 12.3529 146.325C12.8329 146.855 13.0729 147.55 13.0729 148.41V153H11.9179V148.545C11.9179 147.965 11.7529 147.495 11.4229 147.135C11.1029 146.775 10.6629 146.595 10.1029 146.595C9.54293 146.595 9.08293 146.78 8.72293 147.15C8.36293 147.51 8.18293 147.975 8.18293 148.545V153H7.02793V145.695H8.10793V146.475C8.37793 146.175 8.70293 145.945 9.08293 145.785C9.47293 145.615 9.89793 145.53 10.3579 145.53ZM22.469 141.75V153H21.374V151.845C21.094 152.255 20.704 152.58 20.204 152.82C19.714 153.05 19.184 153.165 18.614 153.165C17.934 153.165 17.319 153 16.769 152.67C16.219 152.33 15.784 151.87 15.464 151.29C15.154 150.71 14.999 150.065 14.999 149.355C14.999 148.645 15.154 148 15.464 147.42C15.784 146.83 16.219 146.37 16.769 146.04C17.319 145.7 17.934 145.53 18.614 145.53C19.164 145.53 19.679 145.64 20.159 145.86C20.639 146.08 21.024 146.385 21.314 146.775V141.75H22.469ZM18.779 152.1C19.219 152.1 19.634 152 20.024 151.8C20.414 151.6 20.729 151.295 20.969 150.885C21.209 150.475 21.329 149.965 21.329 149.355C21.329 148.745 21.209 148.235 20.969 147.825C20.729 147.405 20.414 147.095 20.024 146.895C19.634 146.695 19.219 146.595 18.779 146.595C18.289 146.595 17.844 146.715 17.444 146.955C17.054 147.185 16.744 147.51 16.514 147.93C16.294 148.35 16.184 148.82 16.184 149.34C16.184 149.86 16.294 150.33 16.514 150.75C16.744 151.17 17.054 151.5 17.444 151.74C17.844 151.98 18.289 152.1 18.779 152.1ZM27.9416 153.165C27.3716 153.165 26.8566 153.04 26.3966 152.79C25.9366 152.53 25.5716 152.17 25.3016 151.71C25.0416 151.24 24.9116 150.7 24.9116 150.09V145.695H26.0516V150.165C26.0516 150.755 26.2316 151.225 26.5916 151.575C26.9516 151.925 27.4016 152.1 27.9416 152.1C28.4716 152.1 28.9116 151.925 29.2616 151.575C29.6216 151.215 29.8016 150.745 29.8016 150.165V145.695H30.9566V150.09C30.9566 150.7 30.8216 151.24 30.5516 151.71C30.2916 152.17 29.9316 152.53 29.4716 152.79C29.0116 153.04 28.5016 153.165 27.9416 153.165ZM35.5551 153.165C34.9451 153.165 34.3951 153.035 33.9051 152.775C33.4251 152.505 33.0251 152.16 32.7051 151.74L33.4401 150.975C33.7901 151.335 34.1251 151.615 34.4451 151.815C34.7651 152.005 35.1301 152.1 35.5401 152.1C35.9401 152.1 36.2701 152.01 36.5301 151.83C36.8001 151.64 36.9351 151.385 36.9351 151.065C36.9351 150.775 36.8351 150.555 36.6351 150.405C36.4351 150.245 36.1101 150.075 35.6601 149.895L34.9551 149.595C34.3451 149.345 33.8901 149.07 33.5901 148.77C33.2901 148.46 33.1401 148.06 33.1401 147.57C33.1401 146.93 33.3751 146.43 33.8451 146.07C34.3151 145.71 34.9001 145.53 35.6001 145.53C36.1101 145.53 36.5701 145.635 36.9801 145.845C37.3901 146.045 37.7451 146.325 38.0451 146.685L37.3401 147.405C37.0901 147.155 36.8101 146.96 36.5001 146.82C36.2001 146.67 35.8801 146.595 35.5401 146.595C35.1801 146.595 34.8851 146.675 34.6551 146.835C34.4351 146.995 34.3251 147.22 34.3251 147.51C34.3251 147.74 34.4101 147.93 34.5801 148.08C34.7601 148.22 35.0701 148.385 35.5101 148.575L36.1851 148.86C36.8651 149.15 37.3551 149.46 37.6551 149.79C37.9651 150.11 38.1201 150.52 38.1201 151.02C38.1201 151.7 37.8701 152.23 37.3701 152.61C36.8801 152.98 36.2751 153.165 35.5551 153.165ZM43.2216 152.115C43.5016 152.115 43.8266 152.085 44.1966 152.025V153C43.7366 153.11 43.3316 153.165 42.9816 153.165C42.2216 153.165 41.6216 152.97 41.1816 152.58C40.7416 152.19 40.5216 151.595 40.5216 150.795V146.73H39.2916V145.695H40.5216V143.7H41.6766V145.695H43.9566V146.73H41.6766V150.72C41.6766 151.24 41.8066 151.605 42.0666 151.815C42.3366 152.015 42.7216 152.115 43.2216 152.115ZM49.2645 145.635C49.4245 145.635 49.6045 145.655 49.8045 145.695V146.715H49.3695C48.9595 146.715 48.5795 146.8 48.2295 146.97C47.8795 147.14 47.5995 147.385 47.3895 147.705C47.1795 148.025 47.0745 148.41 47.0745 148.86V153H45.9195V145.695H46.9995V146.73C47.2595 146.38 47.5895 146.11 47.9895 145.92C48.3995 145.73 48.8245 145.635 49.2645 145.635ZM51.3541 145.695H52.5091V153H51.3541V145.695ZM51.9391 143.745C51.6991 143.745 51.4941 143.665 51.3241 143.505C51.1541 143.345 51.0691 143.145 51.0691 142.905C51.0691 142.675 51.1541 142.48 51.3241 142.32C51.4941 142.15 51.6991 142.065 51.9391 142.065C52.1691 142.065 52.3691 142.15 52.5391 142.32C52.7091 142.48 52.7941 142.675 52.7941 142.905C52.7941 143.145 52.7091 143.345 52.5391 143.505C52.3791 143.665 52.1791 143.745 51.9391 143.745ZM57.6705 145.53C58.5305 145.53 59.2205 145.785 59.7405 146.295C60.2605 146.805 60.5205 147.54 60.5205 148.5V153H59.4405V152.055C59.1705 152.415 58.8255 152.69 58.4055 152.88C57.9855 153.07 57.5105 153.165 56.9805 153.165C56.2305 153.165 55.6155 152.98 55.1355 152.61C54.6655 152.24 54.4305 151.74 54.4305 151.11C54.4305 150.49 54.6705 149.995 55.1505 149.625C55.6305 149.255 56.2655 149.07 57.0555 149.07H59.3655V148.44C59.3655 147.84 59.2055 147.385 58.8855 147.075C58.5755 146.755 58.1455 146.595 57.5955 146.595C57.1555 146.595 56.7655 146.695 56.4255 146.895C56.0855 147.085 55.7655 147.375 55.4655 147.765L54.7005 147.135C55.0305 146.595 55.4555 146.195 55.9755 145.935C56.4955 145.665 57.0605 145.53 57.6705 145.53ZM57.1305 152.205C57.5305 152.205 57.9005 152.12 58.2405 151.95C58.5805 151.77 58.8505 151.525 59.0505 151.215C59.2605 150.905 59.3655 150.565 59.3655 150.195V150.015H57.1905C56.6805 150.015 56.2905 150.105 56.0205 150.285C55.7505 150.455 55.6155 150.71 55.6155 151.05C55.6155 151.42 55.7605 151.705 56.0505 151.905C56.3405 152.105 56.7005 152.205 57.1305 152.205ZM62.9703 141.75H64.1253V153H62.9703V141.75ZM78.8758 145.53C79.7158 145.53 80.3658 145.795 80.8258 146.325C81.2958 146.845 81.5308 147.54 81.5308 148.41V153H80.3758V148.56C80.3758 147.97 80.2208 147.495 79.9108 147.135C79.6108 146.775 79.1908 146.595 78.6508 146.595C78.1008 146.595 77.6508 146.775 77.3008 147.135C76.9508 147.495 76.7758 147.935 76.7758 148.455V153H75.6208V148.56C75.6208 147.97 75.4608 147.495 75.1408 147.135C74.8308 146.775 74.4108 146.595 73.8808 146.595C73.3308 146.595 72.8808 146.78 72.5308 147.15C72.1908 147.51 72.0208 147.98 72.0208 148.56V153H70.8658V145.695H71.9458V146.46C72.2058 146.16 72.5208 145.93 72.8908 145.77C73.2608 145.61 73.6708 145.53 74.1208 145.53C74.6508 145.53 75.1058 145.64 75.4858 145.86C75.8658 146.08 76.1608 146.39 76.3708 146.79C76.6408 146.41 76.9908 146.105 77.4208 145.875C77.8508 145.645 78.3358 145.53 78.8758 145.53ZM87.2612 153.15C86.5612 153.15 85.9212 152.98 85.3412 152.64C84.7612 152.3 84.3012 151.84 83.9612 151.26C83.6212 150.67 83.4512 150.03 83.4512 149.34C83.4512 148.64 83.6212 148 83.9612 147.42C84.3012 146.83 84.7612 146.37 85.3412 146.04C85.9312 145.7 86.5762 145.53 87.2762 145.53C87.9762 145.53 88.6162 145.7 89.1962 146.04C89.7862 146.38 90.2512 146.84 90.5912 147.42C90.9312 148 91.1012 148.64 91.1012 149.34C91.1012 150.03 90.9312 150.67 90.5912 151.26C90.2512 151.84 89.7862 152.3 89.1962 152.64C88.6062 152.98 87.9612 153.15 87.2612 153.15ZM87.2612 152.085C87.7512 152.085 88.1962 151.965 88.5962 151.725C89.0062 151.485 89.3262 151.16 89.5562 150.75C89.7962 150.33 89.9162 149.865 89.9162 149.355C89.9162 148.835 89.8012 148.365 89.5712 147.945C89.3412 147.525 89.0212 147.195 88.6112 146.955C88.2112 146.715 87.7662 146.595 87.2762 146.595C86.7762 146.595 86.3262 146.715 85.9262 146.955C85.5262 147.195 85.2112 147.525 84.9812 147.945C84.7512 148.365 84.6362 148.835 84.6362 149.355C84.6362 149.865 84.7512 150.33 84.9812 150.75C85.2112 151.16 85.5262 151.485 85.9262 151.725C86.3262 151.965 86.7712 152.085 87.2612 152.085ZM96.4614 145.53C97.3114 145.53 97.9764 145.795 98.4564 146.325C98.9364 146.855 99.1764 147.55 99.1764 148.41V153H98.0214V148.545C98.0214 147.965 97.8564 147.495 97.5264 147.135C97.2064 146.775 96.7664 146.595 96.2064 146.595C95.6464 146.595 95.1864 146.78 94.8264 147.15C94.4664 147.51 94.2864 147.975 94.2864 148.545V153H93.1314V145.695H94.2114V146.475C94.4814 146.175 94.8064 145.945 95.1864 145.785C95.5764 145.615 96.0014 145.53 96.4614 145.53ZM101.628 145.695H102.783V153H101.628V145.695ZM102.213 143.745C101.973 143.745 101.768 143.665 101.598 143.505C101.428 143.345 101.343 143.145 101.343 142.905C101.343 142.675 101.428 142.48 101.598 142.32C101.768 142.15 101.973 142.065 102.213 142.065C102.443 142.065 102.643 142.15 102.813 142.32C102.983 142.48 103.068 142.675 103.068 142.905C103.068 143.145 102.983 143.345 102.813 143.505C102.653 143.665 102.453 143.745 102.213 143.745ZM108.334 152.115C108.614 152.115 108.939 152.085 109.309 152.025V153C108.849 153.11 108.444 153.165 108.094 153.165C107.334 153.165 106.734 152.97 106.294 152.58C105.854 152.19 105.634 151.595 105.634 150.795V146.73H104.404V145.695H105.634V143.7H106.789V145.695H109.069V146.73H106.789V150.72C106.789 151.24 106.919 151.605 107.179 151.815C107.449 152.015 107.834 152.115 108.334 152.115ZM114.17 153.15C113.47 153.15 112.83 152.98 112.25 152.64C111.67 152.3 111.21 151.84 110.87 151.26C110.53 150.67 110.36 150.03 110.36 149.34C110.36 148.64 110.53 148 110.87 147.42C111.21 146.83 111.67 146.37 112.25 146.04C112.84 145.7 113.485 145.53 114.185 145.53C114.885 145.53 115.525 145.7 116.105 146.04C116.695 146.38 117.16 146.84 117.5 147.42C117.84 148 118.01 148.64 118.01 149.34C118.01 150.03 117.84 150.67 117.5 151.26C117.16 151.84 116.695 152.3 116.105 152.64C115.515 152.98 114.87 153.15 114.17 153.15ZM114.17 152.085C114.66 152.085 115.105 151.965 115.505 151.725C115.915 151.485 116.235 151.16 116.465 150.75C116.705 150.33 116.825 149.865 116.825 149.355C116.825 148.835 116.71 148.365 116.48 147.945C116.25 147.525 115.93 147.195 115.52 146.955C115.12 146.715 114.675 146.595 114.185 146.595C113.685 146.595 113.235 146.715 112.835 146.955C112.435 147.195 112.12 147.525 111.89 147.945C111.66 148.365 111.545 148.835 111.545 149.355C111.545 149.865 111.66 150.33 111.89 150.75C112.12 151.16 112.435 151.485 112.835 151.725C113.235 151.965 113.68 152.085 114.17 152.085ZM123.386 145.635C123.546 145.635 123.726 145.655 123.926 145.695V146.715H123.491C123.081 146.715 122.701 146.8 122.351 146.97C122.001 147.14 121.721 147.385 121.511 147.705C121.301 148.025 121.196 148.41 121.196 148.86V153H120.041V145.695H121.121V146.73C121.381 146.38 121.711 146.11 122.111 145.92C122.521 145.73 122.946 145.635 123.386 145.635ZM125.475 145.695H126.63V153H125.475V145.695ZM126.06 143.745C125.82 143.745 125.615 143.665 125.445 143.505C125.275 143.345 125.19 143.145 125.19 142.905C125.19 142.675 125.275 142.48 125.445 142.32C125.615 142.15 125.82 142.065 126.06 142.065C126.29 142.065 126.49 142.15 126.66 142.32C126.83 142.48 126.915 142.675 126.915 142.905C126.915 143.145 126.83 143.345 126.66 143.505C126.5 143.665 126.3 143.745 126.06 143.745ZM132.497 145.53C133.347 145.53 134.012 145.795 134.492 146.325C134.972 146.855 135.212 147.55 135.212 148.41V153H134.057V148.545C134.057 147.965 133.892 147.495 133.562 147.135C133.242 146.775 132.802 146.595 132.242 146.595C131.682 146.595 131.222 146.78 130.862 147.15C130.502 147.51 130.322 147.975 130.322 148.545V153H129.167V145.695H130.247V146.475C130.517 146.175 130.842 145.945 131.222 145.785C131.612 145.615 132.037 145.53 132.497 145.53ZM144.683 145.695V152.295C144.683 153.405 144.358 154.275 143.708 154.905C143.068 155.545 142.208 155.865 141.128 155.865C140.418 155.865 139.768 155.73 139.178 155.46C138.598 155.2 138.103 154.865 137.693 154.455L138.368 153.645C138.778 154.005 139.198 154.285 139.628 154.485C140.058 154.695 140.548 154.8 141.098 154.8C141.858 154.8 142.453 154.59 142.883 154.17C143.313 153.75 143.528 153.145 143.528 152.355V151.71C143.238 152.09 142.848 152.39 142.358 152.61C141.878 152.82 141.363 152.925 140.813 152.925C140.133 152.925 139.518 152.765 138.968 152.445C138.428 152.125 138.003 151.685 137.693 151.125C137.383 150.565 137.228 149.935 137.228 149.235C137.228 148.535 137.383 147.905 137.693 147.345C138.003 146.785 138.428 146.345 138.968 146.025C139.518 145.695 140.133 145.53 140.813 145.53C141.393 145.53 141.928 145.65 142.418 145.89C142.918 146.12 143.308 146.445 143.588 146.865V145.695H144.683ZM140.993 151.86C141.443 151.86 141.858 151.765 142.238 151.575C142.628 151.385 142.943 151.095 143.183 150.705C143.423 150.305 143.543 149.815 143.543 149.235C143.543 148.655 143.423 148.17 143.183 147.78C142.943 147.39 142.628 147.1 142.238 146.91C141.848 146.72 141.433 146.625 140.993 146.625C140.503 146.625 140.058 146.74 139.658 146.97C139.268 147.19 138.958 147.5 138.728 147.9C138.508 148.29 138.398 148.74 138.398 149.25C138.398 149.76 138.508 150.215 138.728 150.615C138.958 151.005 139.268 151.31 139.658 151.53C140.058 151.75 140.503 151.86 140.993 151.86ZM49.6616 172.165C49.0516 172.165 48.5016 172.035 48.0116 171.775C47.5316 171.505 47.1316 171.16 46.8116 170.74L47.5466 169.975C47.8966 170.335 48.2316 170.615 48.5516 170.815C48.8716 171.005 49.2366 171.1 49.6466 171.1C50.0466 171.1 50.3766 171.01 50.6366 170.83C50.9066 170.64 51.0416 170.385 51.0416 170.065C51.0416 169.775 50.9416 169.555 50.7416 169.405C50.5416 169.245 50.2166 169.075 49.7666 168.895L49.0616 168.595C48.4516 168.345 47.9966 168.07 47.6966 167.77C47.3966 167.46 47.2466 167.06 47.2466 166.57C47.2466 165.93 47.4816 165.43 47.9516 165.07C48.4216 164.71 49.0066 164.53 49.7066 164.53C50.2166 164.53 50.6766 164.635 51.0866 164.845C51.4966 165.045 51.8516 165.325 52.1516 165.685L51.4466 166.405C51.1966 166.155 50.9166 165.96 50.6066 165.82C50.3066 165.67 49.9866 165.595 49.6466 165.595C49.2866 165.595 48.9916 165.675 48.7616 165.835C48.5416 165.995 48.4316 166.22 48.4316 166.51C48.4316 166.74 48.5166 166.93 48.6866 167.08C48.8666 167.22 49.1766 167.385 49.6166 167.575L50.2916 167.86C50.9716 168.15 51.4616 168.46 51.7616 168.79C52.0716 169.11 52.2266 169.52 52.2266 170.02C52.2266 170.7 51.9766 171.23 51.4766 171.61C50.9866 171.98 50.3816 172.165 49.6616 172.165ZM60.7331 164.695L57.1331 173.02C56.8531 173.66 56.5081 174.125 56.0981 174.415C55.6981 174.715 55.2181 174.865 54.6581 174.865C54.2881 174.865 53.9131 174.815 53.5331 174.715V173.74C53.9131 173.79 54.2081 173.815 54.4181 173.815C54.7981 173.815 55.1181 173.73 55.3781 173.56C55.6481 173.39 55.8781 173.085 56.0681 172.645L56.4581 171.775L53.4281 164.695H54.6731L57.0881 170.515L59.5031 164.695H60.7331ZM64.3393 172.165C63.7293 172.165 63.1793 172.035 62.6893 171.775C62.2093 171.505 61.8093 171.16 61.4893 170.74L62.2243 169.975C62.5743 170.335 62.9093 170.615 63.2293 170.815C63.5493 171.005 63.9143 171.1 64.3243 171.1C64.7243 171.1 65.0543 171.01 65.3143 170.83C65.5843 170.64 65.7193 170.385 65.7193 170.065C65.7193 169.775 65.6193 169.555 65.4193 169.405C65.2193 169.245 64.8943 169.075 64.4443 168.895L63.7393 168.595C63.1293 168.345 62.6743 168.07 62.3743 167.77C62.0743 167.46 61.9243 167.06 61.9243 166.57C61.9243 165.93 62.1593 165.43 62.6293 165.07C63.0993 164.71 63.6843 164.53 64.3843 164.53C64.8943 164.53 65.3543 164.635 65.7643 164.845C66.1743 165.045 66.5293 165.325 66.8293 165.685L66.1243 166.405C65.8743 166.155 65.5943 165.96 65.2843 165.82C64.9843 165.67 64.6643 165.595 64.3243 165.595C63.9643 165.595 63.6693 165.675 63.4393 165.835C63.2193 165.995 63.1093 166.22 63.1093 166.51C63.1093 166.74 63.1943 166.93 63.3643 167.08C63.5443 167.22 63.8543 167.385 64.2943 167.575L64.9693 167.86C65.6493 168.15 66.1393 168.46 66.4393 168.79C66.7493 169.11 66.9043 169.52 66.9043 170.02C66.9043 170.7 66.6543 171.23 66.1543 171.61C65.6643 171.98 65.0593 172.165 64.3393 172.165ZM72.0058 171.115C72.2858 171.115 72.6108 171.085 72.9808 171.025V172C72.5208 172.11 72.1158 172.165 71.7658 172.165C71.0058 172.165 70.4058 171.97 69.9658 171.58C69.5258 171.19 69.3058 170.595 69.3058 169.795V165.73H68.0758V164.695H69.3058V162.7H70.4608V164.695H72.7408V165.73H70.4608V169.72C70.4608 170.24 70.5908 170.605 70.8508 170.815C71.1208 171.015 71.5058 171.115 72.0058 171.115ZM81.0972 167.83C81.0972 168.11 81.0672 168.4 81.0072 168.7H75.2322C75.3022 169.42 75.5872 170 76.0872 170.44C76.5872 170.88 77.1972 171.1 77.9172 171.1C78.7472 171.1 79.4922 170.77 80.1522 170.11L80.8272 170.89C80.4472 171.29 80.0072 171.605 79.5072 171.835C79.0172 172.055 78.4822 172.165 77.9022 172.165C77.1822 172.165 76.5272 172 75.9372 171.67C75.3472 171.33 74.8822 170.87 74.5422 170.29C74.2022 169.71 74.0322 169.065 74.0322 168.355C74.0322 167.655 74.1972 167.015 74.5272 166.435C74.8572 165.845 75.3072 165.38 75.8772 165.04C76.4472 164.7 77.0772 164.53 77.7672 164.53C78.3872 164.53 78.9522 164.67 79.4622 164.95C79.9722 165.23 80.3722 165.62 80.6622 166.12C80.9522 166.62 81.0972 167.19 81.0972 167.83ZM77.7372 165.58C77.1272 165.58 76.5972 165.775 76.1472 166.165C75.6972 166.545 75.4072 167.05 75.2772 167.68H79.9122C79.9022 167.03 79.6872 166.52 79.2672 166.15C78.8572 165.77 78.3472 165.58 77.7372 165.58ZM91.1366 164.53C91.9766 164.53 92.6266 164.795 93.0866 165.325C93.5566 165.845 93.7916 166.54 93.7916 167.41V172H92.6366V167.56C92.6366 166.97 92.4816 166.495 92.1716 166.135C91.8716 165.775 91.4516 165.595 90.9116 165.595C90.3616 165.595 89.9116 165.775 89.5616 166.135C89.2116 166.495 89.0366 166.935 89.0366 167.455V172H87.8816V167.56C87.8816 166.97 87.7216 166.495 87.4016 166.135C87.0916 165.775 86.6716 165.595 86.1416 165.595C85.5916 165.595 85.1416 165.78 84.7916 166.15C84.4516 166.51 84.2816 166.98 84.2816 167.56V172H83.1266V164.695H84.2066V165.46C84.4666 165.16 84.7816 164.93 85.1516 164.77C85.5216 164.61 85.9316 164.53 86.3816 164.53C86.9116 164.53 87.3666 164.64 87.7466 164.86C88.1266 165.08 88.4216 165.39 88.6316 165.79C88.9016 165.41 89.2516 165.105 89.6816 164.875C90.1116 164.645 90.5966 164.53 91.1366 164.53ZM98.3969 172.165C97.7869 172.165 97.2369 172.035 96.7469 171.775C96.2669 171.505 95.8669 171.16 95.5469 170.74L96.2819 169.975C96.6319 170.335 96.9669 170.615 97.2869 170.815C97.6069 171.005 97.9719 171.1 98.3819 171.1C98.7819 171.1 99.1119 171.01 99.3719 170.83C99.6419 170.64 99.7769 170.385 99.7769 170.065C99.7769 169.775 99.6769 169.555 99.4769 169.405C99.2769 169.245 98.9519 169.075 98.5019 168.895L97.7969 168.595C97.1869 168.345 96.7319 168.07 96.4319 167.77C96.1319 167.46 95.9819 167.06 95.9819 166.57C95.9819 165.93 96.2169 165.43 96.6869 165.07C97.1569 164.71 97.7419 164.53 98.4419 164.53C98.9519 164.53 99.4119 164.635 99.8219 164.845C100.232 165.045 100.587 165.325 100.887 165.685L100.182 166.405C99.9319 166.155 99.6519 165.96 99.3419 165.82C99.0419 165.67 98.7219 165.595 98.3819 165.595C98.0219 165.595 97.7269 165.675 97.4969 165.835C97.2769 165.995 97.1669 166.22 97.1669 166.51C97.1669 166.74 97.2519 166.93 97.4219 167.08C97.6019 167.22 97.9119 167.385 98.3519 167.575L99.0269 167.86C99.7069 168.15 100.197 168.46 100.497 168.79C100.807 169.11 100.962 169.52 100.962 170.02C100.962 170.7 100.712 171.23 100.212 171.61C99.7219 171.98 99.1169 172.165 98.3969 172.165Z" fill="#1E1E1E"/>
</svg>
